<?xml version="1.0" encoding="UTF-8" standalone="no"?><!DOCTYPE svg PUBLIC "-//W3C//DTD SVG 1.1//EN" "http://www.w3.org/Graphics/SVG/1.1/DTD/svg11.dtd"><svg width="100%" height="100%" viewBox="0 0 50 50" version="1.1" xmlns="http://www.w3.org/2000/svg" xmlns:xlink="http://www.w3.org/1999/xlink" xml:space="preserve" xmlns:serif="http://www.serif.com/" style="fill-rule:evenodd;clip-rule:evenodd;stroke-linejoin:round;stroke-miterlimit:1.41421;"><g><g><path d="M5.702,5.445c0,-0.365 0.145,-0.715 0.402,-0.972c0.258,-0.258 0.608,-0.403 0.972,-0.403c5.999,0 29.849,0 35.848,0c0.364,0 0.714,0.145 0.972,0.403c0.257,0.257 0.402,0.607 0.402,0.972c0,6.759 0,36.421 0,43.181c0,0.364 -0.145,0.714 -0.402,0.971c-0.258,0.258 -0.608,0.403 -0.972,0.403c-5.999,0 -29.849,0 -35.848,0c-0.364,0 -0.714,-0.145 -0.972,-0.403c-0.257,-0.257 -0.402,-0.607 -0.402,-0.971c0,-6.76 0,-36.422 0,-43.181Z" style="fill:#ff3342;"/><clipPath id="_clip1"><path d="M5.702,5.445c0,-0.365 0.145,-0.715 0.402,-0.972c0.258,-0.258 0.608,-0.403 0.972,-0.403c5.999,0 29.849,0 35.848,0c0.364,0 0.714,0.145 0.972,0.403c0.257,0.257 0.402,0.607 0.402,0.972c0,6.759 0,36.421 0,43.181c0,0.364 -0.145,0.714 -0.402,0.971c-0.258,0.258 -0.608,0.403 -0.972,0.403c-5.999,0 -29.849,0 -35.848,0c-0.364,0 -0.714,-0.145 -0.972,-0.403c-0.257,-0.257 -0.402,-0.607 -0.402,-0.971c0,-6.76 0,-36.422 0,-43.181Z"/></clipPath><g clip-path="url(#_clip1)"><rect x="5.702" y="4.07" width="38.596" height="8.62" style="fill:#ff7983;"/></g><path d="M28.24,23.501c0.001,-2.908 2.358,-5.266 5.266,-5.266c0.001,0 0.002,0 0.003,0c2.908,0 5.266,2.358 5.266,5.266c0,0.001 0,0.002 0,0.003c0,2.908 -2.358,5.266 -5.266,5.266c-0.001,0 -0.002,0 -0.003,0c-2.908,0 -5.265,-2.358 -5.266,-5.266c0,-0.001 0,-0.002 0,-0.003Z" style="fill:#fff;"/><g><path d="M14.466,24.268c0,-2.908 2.357,-5.266 5.266,-5.266c0,0 0.001,0 0.002,0c2.908,0 5.266,2.358 5.266,5.266c0,0.001 0,0.002 0,0.002c0,2.909 -2.358,5.266 -5.266,5.266c-0.001,0 -0.002,0 -0.002,0c-2.909,0 -5.266,-2.357 -5.266,-5.266c0,0 0,-0.001 0,-0.002Z" style="fill:#fff;"/><path d="M18.881,24.557c0,-1.065 0.864,-1.93 1.93,-1.93c0.001,0 0.001,0 0.002,0c1.066,0 1.93,0.865 1.93,1.93c0,0.127 0,0.255 0,0.382c0,1.065 -0.864,1.93 -1.93,1.93c-0.001,0 -0.001,0 -0.002,0c-1.066,0 -1.93,-0.865 -1.93,-1.93c0,-0.127 0,-0.255 0,-0.382Z" style="fill:#ff737d;"/></g><path d="M33.508,23.791c0,-1.066 0.864,-1.93 1.93,-1.93l0.001,0c1.066,0 1.93,0.864 1.93,1.93c0,0.126 0,0.254 0,0.381c0,1.066 -0.864,1.93 -1.93,1.93l-0.001,0c-1.066,0 -1.93,-0.864 -1.93,-1.93c0,-0.127 0,-0.255 0,-0.381Z" style="fill:#ff737d;"/><g><path d="M31.062,0l-5.644,5.632l7.525,0l-1.881,-5.632Z" style="fill:#ff7983;"/><path d="M27.26,0l-7.645,5.826l10.193,0l-2.548,-5.826Z" style="fill:#ff7983;"/><path d="M21.536,0l7.645,5.826l-10.193,0l2.548,-5.826Z" style="fill:#ff7983;"/><path d="M19.262,0l7.645,5.826l-10.193,0l2.548,-5.826Z" style="fill:#ff7983;"/></g><path d="M3.861,12.689c0,-1.964 1.592,-3.556 3.556,-3.556c7.971,0 27.195,0 35.166,0c1.964,0 3.556,1.592 3.556,3.556c0,0.001 0,0.002 0,0.002c0,1.964 -1.592,3.556 -3.556,3.556c-7.971,0 -27.195,0 -35.166,0c-1.964,0 -3.556,-1.592 -3.556,-3.556c0,0 0,-0.001 0,-0.002Z" style="fill:#c50e1b;"/><clipPath id="_clip2"><path d="M3.861,12.689c0,-1.964 1.592,-3.556 3.556,-3.556c7.971,0 27.195,0 35.166,0c1.964,0 3.556,1.592 3.556,3.556c0,0.001 0,0.002 0,0.002c0,1.964 -1.592,3.556 -3.556,3.556c-7.971,0 -27.195,0 -35.166,0c-1.964,0 -3.556,-1.592 -3.556,-3.556c0,0 0,-0.001 0,-0.002Z"/></clipPath><g clip-path="url(#_clip2)"><rect x="1.784" y="11.664" width="46.433" height="2.052" style="fill:#fff;"/></g><g><path d="M15.082,42.781c0,-1.342 0.533,-2.629 1.482,-3.578c0.949,-0.949 2.236,-1.482 3.578,-1.482c4.412,0 10.778,0 15.19,0c1.342,0 2.629,0.533 3.578,1.482c0.949,0.949 1.482,2.236 1.482,3.578c0,0.001 0,0.002 0,0.004c0,1.342 -0.533,2.629 -1.482,3.578c-0.949,0.949 -2.236,1.482 -3.578,1.482c-4.412,0 -10.778,0 -15.19,0c-1.342,0 -2.629,-0.533 -3.578,-1.482c-0.949,-0.949 -1.482,-2.236 -1.482,-3.578c0,-0.002 0,-0.003 0,-0.004Z" style="fill:#c50e1b;"/><path d="M19.416,42.783c0,-0.67 0.266,-1.313 0.74,-1.787c0.474,-0.473 1.116,-0.739 1.786,-0.739c2.201,0 5.377,0 7.579,0c0.67,0 1.312,0.266 1.786,0.739c0.474,0.474 0.74,1.117 0.74,1.787c0,0.67 -0.266,1.312 -0.74,1.786c-0.474,0.474 -1.116,0.74 -1.786,0.74c-2.202,0 -5.378,0 -7.579,0c-0.67,0 -1.312,-0.266 -1.786,-0.74c-0.474,-0.474 -0.74,-1.116 -0.74,-1.786l0,0Z" style="fill:#820710;"/><g><rect x="27.168" y="37.721" width="2.463" height="2.536" style="fill:#ddd5a0;"/><path d="M27.168,40.257l2.463,0l0,0.001c0,0.299 -0.119,0.586 -0.331,0.798c-0.211,0.211 -0.498,0.33 -0.797,0.33c-0.069,0 -0.138,0 -0.207,0c-0.299,0 -0.586,-0.119 -0.798,-0.33c-0.211,-0.212 -0.33,-0.499 -0.33,-0.798l0,-0.001Z" style="fill:#fff;"/></g><g><rect x="21.383" y="37.721" width="3.758" height="2.536" style="fill:#ddd5a0;"/><path d="M21.383,40.278l3.758,0c0,0 0,0.001 0,0.002c0,0.623 -0.505,1.128 -1.128,1.128c-0.475,0 -1.027,0 -1.502,0c-0.623,0 -1.128,-0.505 -1.128,-1.128c0,-0.001 0,-0.002 0,-0.002Z" style="fill:#fff;"/></g><g><rect x="24.641" y="45.309" width="3.758" height="2.536" style="fill:#ddd5a0;"/><path d="M24.641,45.287l3.758,0l0,-0.001c0,-0.623 -0.505,-1.128 -1.128,-1.128c-0.475,0 -1.027,0 -1.502,0c-0.623,0 -1.128,0.505 -1.128,1.128l0,0.001Z" style="fill:#fff;"/></g></g></g><path d="M31.904,33.402c0,-1.112 -0.902,-2.014 -2.014,-2.014c-1.433,0 -3.349,0 -4.782,0c-1.112,0 -2.014,0.902 -2.014,2.014c0,0.001 0,0.002 0,0.003c0,1.112 0.902,2.014 2.014,2.014c1.433,0 3.349,0 4.782,0c1.112,0 2.014,-0.902 2.014,-2.014c0,-0.001 0,-0.002 0,-0.003Z" style="fill:#fff;fill-opacity:0.313726;"/></g></svg>