<?xml version="1.0" encoding="UTF-8" standalone="no"?><!DOCTYPE svg PUBLIC "-//W3C//DTD SVG 1.1//EN" "http://www.w3.org/Graphics/SVG/1.1/DTD/svg11.dtd"><svg width="100%" height="100%" viewBox="0 0 50 50" version="1.1" xmlns="http://www.w3.org/2000/svg" xmlns:xlink="http://www.w3.org/1999/xlink" xml:space="preserve" xmlns:serif="http://www.serif.com/" style="fill-rule:evenodd;clip-rule:evenodd;stroke-linejoin:round;stroke-miterlimit:1.41421;"><path d="M44,12.631c0,-2.155 -0.856,-4.221 -2.38,-5.745c-1.523,-1.523 -3.59,-2.379 -5.744,-2.379c-7.905,0 -19.847,0 -27.752,0c-2.154,0 -4.221,0.856 -5.744,2.379c-1.524,1.524 -2.38,3.59 -2.38,5.745c0,7.42 0,18.331 0,25.751c0,2.155 0.856,4.221 2.38,5.745c1.523,1.524 3.59,2.38 5.744,2.38c7.905,0 19.847,0 27.752,0c2.154,0 4.221,-0.856 5.744,-2.38c1.524,-1.524 2.38,-3.59 2.38,-5.745c0,-7.42 0,-18.331 0,-25.751Z" style="fill:#6be93b;"/><path d="M28.364,29.464l-12.728,-12.728l-6.299,6.299l12.728,12.728l6.299,-6.299Z" style="fill:#fff;"/><path d="M44,3.493l-27.102,27.103l6.092,6.092l27.102,-27.102l-6.092,-6.093Z" style="fill:#fff;"/></svg>