<?xml version="1.0" encoding="UTF-8" standalone="no"?><!DOCTYPE svg PUBLIC "-//W3C//DTD SVG 1.1//EN" "http://www.w3.org/Graphics/SVG/1.1/DTD/svg11.dtd"><svg width="100%" height="100%" viewBox="0 0 746 125" version="1.1" xmlns="http://www.w3.org/2000/svg" xmlns:xlink="http://www.w3.org/1999/xlink" xml:space="preserve" xmlns:serif="http://www.serif.com/" style="fill-rule:evenodd;clip-rule:evenodd;stroke-linejoin:round;stroke-miterlimit:1.41421;"><g><g><text x="65.817px" y="121.474px" style="font-family:'Museo-700', 'Museo';font-weight:600;font-size:92.846px;fill:#ff0051;">G<tspan x="135.544px 187.538px " y="121.474px 121.474px ">am</tspan>es</text><text x="370.26px" y="123.112px" style="font-family:'Museo-700', 'Museo';font-weight:600;font-size:96.723px;fill:#06f;">connect</text></g><g><path d="M30.365,5.594l-29.716,5.594l5.594,29.716l29.716,-5.594l-5.594,-29.716Z" style="fill:url(#_Linear1);"/><path d="M71.269,59.432l-29.716,5.594l-5.594,-29.716l29.716,-5.594l5.594,29.716Z" style="fill:url(#_Linear2);"/><path d="M35.959,35.31l29.716,-5.594l-5.594,-29.716l-29.716,5.594l5.594,29.716Z" style="fill:url(#_Linear3);"/><path d="M6.243,40.904l29.716,-5.594l5.594,29.716l-29.716,5.594l-5.594,-29.716Z" style="fill:url(#_Linear4);"/><path d="M31.1,9.497l-20.954,30.672l30.672,20.954l20.954,-30.672l-30.672,-20.954Z" style="fill:#fff;"/></g></g><defs><linearGradient id="_Linear1" x1="0" y1="0" x2="1" y2="0" gradientUnits="userSpaceOnUse" gradientTransform="matrix(35.3099,24.1222,-24.1222,35.3099,0.649083,11.1876)"><stop offset="0" style="stop-color:#ffbc00;stop-opacity:1"/><stop offset="1" style="stop-color:#bf8d00;stop-opacity:1"/></linearGradient><linearGradient id="_Linear2" x1="0" y1="0" x2="1" y2="0" gradientUnits="userSpaceOnUse" gradientTransform="matrix(-35.3099,-24.1222,24.1222,-35.3099,71.2688,59.4321)"><stop offset="0" style="stop-color:#06f;stop-opacity:1"/><stop offset="1" style="stop-color:#003d99;stop-opacity:1"/></linearGradient><linearGradient id="_Linear3" x1="0" y1="0" x2="1" y2="0" gradientUnits="userSpaceOnUse" gradientTransform="matrix(-24.1222,35.3099,-35.3099,-24.1222,60.0812,-5.68434e-14)"><stop offset="0" style="stop-color:#ff0051;stop-opacity:1"/><stop offset="1" style="stop-color:#c1003e;stop-opacity:1"/></linearGradient><linearGradient id="_Linear4" x1="0" y1="0" x2="1" y2="0" gradientUnits="userSpaceOnUse" gradientTransform="matrix(24.1222,-35.3099,35.3099,24.1222,11.8367,70.6197)"><stop offset="0" style="stop-color:#ff00ad;stop-opacity:1"/><stop offset="1" style="stop-color:#c00785;stop-opacity:1"/></linearGradient></defs></svg>