<?xml version="1.0" encoding="UTF-8" standalone="no"?><!DOCTYPE svg PUBLIC "-//W3C//DTD SVG 1.1//EN" "http://www.w3.org/Graphics/SVG/1.1/DTD/svg11.dtd"><svg width="100%" height="100%" viewBox="0 0 1280 800" version="1.1" xmlns="http://www.w3.org/2000/svg" xmlns:xlink="http://www.w3.org/1999/xlink" xml:space="preserve" xmlns:serif="http://www.serif.com/" style="fill-rule:evenodd;clip-rule:evenodd;stroke-linejoin:round;stroke-miterlimit:1.41421;"><path d="M383.985,-37.526l5.836,1.411l5.541,2.313l5.107,3.157l4.546,3.921l3.872,4.589l3.101,5.141l378,756l2.234,5.505l1.348,5.786l0.429,5.925l-0.499,5.92l-1.415,5.769l-2.298,5.479l-3.123,5.053l-3.873,4.505l-4.527,3.847l-5.072,3.093l-5.492,2.266l-5.777,1.382l-5.923,0.464l-756,0l-5.923,-0.464l-5.777,-1.382l-5.492,-2.266l-5.072,-3.093l-4.527,-3.847l-3.873,-4.505l-3.123,-5.053l-2.298,-5.479l-1.415,-5.769l-0.499,-5.92l0.429,-5.925l1.348,-5.786l2.234,-5.505l378,-756l3.101,-5.141l3.872,-4.589l4.546,-3.921l5.107,-3.157l5.541,-2.313l5.836,-1.411l5.985,-0.474l5.985,0.474Zm-383.985,793.526l756,0l-378,-756l-378,756Z" style="fill:#ffcb00;"/><path d="M1087.99,-37.526l5.836,1.411l5.541,2.313l5.107,3.157l4.546,3.921l3.872,4.589l3.101,5.141l378,756l2.234,5.505l1.348,5.786l0.429,5.925l-0.499,5.92l-1.415,5.769l-2.298,5.479l-3.123,5.053l-3.873,4.505l-4.527,3.847l-5.072,3.093l-5.492,2.266l-5.777,1.382l-5.923,0.464l-756,0l-5.923,-0.464l-5.777,-1.382l-5.492,-2.266l-5.072,-3.093l-4.527,-3.847l-3.873,-4.505l-3.123,-5.053l-2.298,-5.479l-1.415,-5.769l-0.499,-5.92l0.429,-5.925l1.348,-5.786l2.234,-5.505l378,-756l3.101,-5.141l3.872,-4.589l4.546,-3.921l5.107,-3.157l5.541,-2.313l5.836,-1.411l5.985,-0.474l5.985,0.474Zm-383.985,793.526l756,0l-378,-756l-378,756Z" style="fill:#ff00ad;"/><path d="M853.923,6.464l5.777,1.382l5.492,2.266l5.072,3.093l4.527,3.847l3.873,4.505l3.123,5.053l2.298,5.479l1.415,5.769l0.499,5.92l-0.429,5.925l-1.348,5.786l-2.234,5.505l-378,756l-3.101,5.141l-3.872,4.589l-4.546,3.921l-5.107,3.157l-5.541,2.313l-5.836,1.411l-5.985,0.474l-5.985,-0.474l-5.836,-1.411l-5.541,-2.313l-5.107,-3.157l-4.546,-3.921l-3.872,-4.589l-3.101,-5.141l-378,-756l-2.234,-5.505l-1.348,-5.786l-0.429,-5.925l0.499,-5.92l1.415,-5.769l2.298,-5.479l3.123,-5.053l3.873,-4.505l4.527,-3.847l5.072,-3.093l5.492,-2.266l5.777,-1.382l5.923,-0.464l756,0l5.923,0.464Zm-761.923,37.536l378,756l378,-756l-756,0Z" style="fill:#ff0051;"/><path d="M1180.92,-37.536l5.777,1.382l5.492,2.266l5.072,3.093l4.527,3.847l3.873,4.505l3.123,5.053l2.298,5.479l1.415,5.769l0.499,5.92l-0.429,5.925l-1.348,5.786l-2.234,5.505l-378,756l-3.101,5.141l-3.872,4.589l-4.546,3.921l-5.107,3.157l-5.541,2.313l-5.836,1.411l-5.985,0.474l-5.985,-0.474l-5.836,-1.411l-5.541,-2.313l-5.107,-3.157l-4.546,-3.921l-3.872,-4.589l-3.101,-5.141l-378,-756l-2.234,-5.505l-1.348,-5.786l-0.429,-5.925l0.499,-5.92l1.415,-5.769l2.298,-5.479l3.123,-5.053l3.873,-4.505l4.527,-3.847l5.072,-3.093l5.492,-2.266l5.777,-1.382l5.923,-0.464l756,0l5.923,0.464Zm-761.923,37.536l378,756l378,-756l-756,0Z" style="fill:#06f;"/></svg>